<svg xmlns="http://www.w3.org/2000/svg" width="24" height="25" viewBox="0 0 24 25" fill="none">
<g clip-path="url(#clip0_738_3648)">
    <path
    d="M20.9346 6.33087L15.3097 0.706016C15.1785 0.574672 14.9993 0.5 14.8125 0.5H4.96875C3.80564 0.5 2.85938 1.44627 2.85938 2.60938V22.3906C2.85938 23.5537 3.80564 24.5 4.96875 24.5H19.0312C20.1944 24.5 21.1406 23.5537 21.1406 22.3906V6.82812C21.1406 6.63641 21.0601 6.45636 20.9346 6.33087ZM15.5156 2.90061L18.74 6.125H16.2188C15.831 6.125 15.5156 5.80958 15.5156 5.42188V2.90061ZM19.0312 23.0938H4.96875C4.58105 23.0938 4.26562 22.7783 4.26562 22.3906V2.60938C4.26562 2.22167 4.58105 1.90625 4.96875 1.90625H14.1094V5.42188C14.1094 6.58498 15.0556 7.53125 16.2188 7.53125H19.7344V22.3906C19.7344 22.7783 19.419 23.0938 19.0312 23.0938Z"
    fill="#0AA6D7"></path>
    <path
    d="M16.2188 10.4375H7.78125C7.39294 10.4375 7.07812 10.7523 7.07812 11.1406C7.07812 11.5289 7.39294 11.8438 7.78125 11.8438H16.2188C16.6071 11.8438 16.9219 11.5289 16.9219 11.1406C16.9219 10.7523 16.6071 10.4375 16.2188 10.4375Z"
    fill="#0AA6D7"></path>
    <path
    d="M16.2188 13.25H7.78125C7.39294 13.25 7.07812 13.5648 7.07812 13.9531C7.07812 14.3414 7.39294 14.6562 7.78125 14.6562H16.2188C16.6071 14.6562 16.9219 14.3414 16.9219 13.9531C16.9219 13.5648 16.6071 13.25 16.2188 13.25Z"
    fill="#0AA6D7"></path>
    <path
    d="M16.2188 16.0625H7.78125C7.39294 16.0625 7.07812 16.3773 7.07812 16.7656C7.07812 17.1539 7.39294 17.4688 7.78125 17.4688H16.2188C16.6071 17.4688 16.9219 17.1539 16.9219 16.7656C16.9219 16.3773 16.6071 16.0625 16.2188 16.0625Z"
    fill="#0AA6D7"></path>
    <path
    d="M13.4062 18.875H7.78125C7.39294 18.875 7.07812 19.1898 7.07812 19.5781C7.07812 19.9664 7.39294 20.2812 7.78125 20.2812H13.4062C13.7946 20.2812 14.1094 19.9664 14.1094 19.5781C14.1094 19.1898 13.7946 18.875 13.4062 18.875Z"
    fill="#0AA6D7"></path>
</g>
<defs>
    <clipPath id="clip0_738_3648">
    <rect width="24" height="24" fill="white" transform="translate(0 0.5)"></rect>
    </clipPath>
</defs>
</svg>